HIERARCHY
ROOT Model
{
	OFFSET 0.000000 0.000000 0.000000 
	CHANNELS 6 Xposition Yposition Zposition Zrotation Xrotation Yrotation
	JOINT Model1
	{
		OFFSET 0.000000 -0.563698 0.748457 
		CHANNELS 3 Zrotation Xrotation Yrotation
		JOINT Model2
		{
			OFFSET 3.027750 0.000000 0.000000 
			CHANNELS 3 Zrotation Xrotation Yrotation
			JOINT Model3
			{
				OFFSET 2.887550 0.000000 0.000000 
				CHANNELS 3 Zrotation Xrotation Yrotation
				JOINT Model4
				{
					OFFSET 2.945250 0.000000 0.000000 
					CHANNELS 3 Zrotation Xrotation Yrotation
					JOINT Model5
					{
						OFFSET 5.015025 0.000000 0.000000 
						CHANNELS 3 Zrotation Xrotation Yrotation
						JOINT Model6
						{
							OFFSET 2.799050 0.000000 0.000000 
							CHANNELS 3 Zrotation Xrotation Yrotation
							End Site
							{
								OFFSET 0.000000 0.000000 0.000000 
							}
						}
					}
					JOINT Model7
					{
						OFFSET 2.705575 0.104384 0.877785 
						CHANNELS 3 Zrotation Xrotation Yrotation
						JOINT Model8
						{
							OFFSET -1.519860 0.000000 0.000000 
							CHANNELS 3 Zrotation Xrotation Yrotation
							JOINT Model9
							{
								OFFSET -0.069355 2.597500 -0.012811 
								CHANNELS 3 Zrotation Xrotation Yrotation
								JOINT Model10
								{
									OFFSET -0.859775 -0.070511 0.466695 
									CHANNELS 3 Zrotation Xrotation Yrotation
									JOINT Model11
									{
										OFFSET 3.256725 0.000000 0.000000 
										CHANNELS 3 Zrotation Xrotation Yrotation
										JOINT Model12
										{
											OFFSET 2.721650 0.000000 0.000000 
											CHANNELS 3 Zrotation Xrotation Yrotation
											JOINT Model13
											{
												OFFSET 4.182925 0.000000 0.000000 
												CHANNELS 3 Zrotation Xrotation Yrotation
												JOINT Model14
												{
													OFFSET 2.957300 0.000000 0.000000 
													CHANNELS 3 Zrotation Xrotation Yrotation
													JOINT Model15
													{
														OFFSET 1.206877 -0.933915 -0.209129 
														CHANNELS 3 Zrotation Xrotation Yrotation
														JOINT Model16
														{
															OFFSET 0.938277 -0.014573 -0.004662 
															CHANNELS 3 Zrotation Xrotation Yrotation
															JOINT Model17
															{
																OFFSET 0.721722 0.004808 0.003701 
																CHANNELS 3 Zrotation Xrotation Yrotation
																End Site
																{
																	OFFSET 0.000000 0.000000 0.000000 
																}
															}
														}
													}
													JOINT Model18
													{
														OFFSET 2.430492 -0.766145 0.059692 
														CHANNELS 3 Zrotation Xrotation Yrotation
														JOINT Model19
														{
															OFFSET 1.152828 0.000000 0.000000 
															CHANNELS 3 Zrotation Xrotation Yrotation
															JOINT Model20
															{
																OFFSET 0.724225 -0.000003 0.000000 
																CHANNELS 3 Zrotation Xrotation Yrotation
																End Site
																{
																	OFFSET 0.000000 0.000000 0.000000 
																}
															}
														}
													}
													JOINT Model21
													{
														OFFSET 2.386077 -0.186266 0.147234 
														CHANNELS 3 Zrotation Xrotation Yrotation
														JOINT Model22
														{
															OFFSET 1.334945 0.000000 0.000000 
															CHANNELS 3 Zrotation Xrotation Yrotation
															JOINT Model23
															{
																OFFSET 0.759048 0.000003 0.000000 
																CHANNELS 3 Zrotation Xrotation Yrotation
																End Site
																{
																	OFFSET 0.000000 0.000000 0.000000 
																}
															}
														}
													}
													JOINT Model24
													{
														OFFSET 2.369395 0.378215 0.121280 
														CHANNELS 3 Zrotation Xrotation Yrotation
														JOINT Model25
														{
															OFFSET 1.240340 0.000003 0.000000 
															CHANNELS 3 Zrotation Xrotation Yrotation
															JOINT Model26
															{
																OFFSET 0.629912 0.000000 0.000000 
																CHANNELS 3 Zrotation Xrotation Yrotation
																End Site
																{
																	OFFSET 0.000000 0.000000 0.000000 
																}
															}
														}
													}
													JOINT Model27
													{
														OFFSET 2.335618 0.835293 -0.059820 
														CHANNELS 3 Zrotation Xrotation Yrotation
														JOINT Model28
														{
															OFFSET 0.820647 0.000007 0.000000 
															CHANNELS 3 Zrotation Xrotation Yrotation
															JOINT Model29
															{
																OFFSET 0.532300 0.000000 0.000000 
																CHANNELS 3 Zrotation Xrotation Yrotation
																End Site
																{
																	OFFSET 0.000000 0.000000 0.000000 
																}
															}
														}
													}
												}
											}
										}
									}
								}
							}
						}
					}
					JOINT Model30
					{
						OFFSET 2.705575 0.104475 -0.877768 
						CHANNELS 3 Zrotation Xrotation Yrotation
						JOINT Model31
						{
							OFFSET 1.519860 0.000000 0.000000 
							CHANNELS 3 Zrotation Xrotation Yrotation
							JOINT Model32
							{
								OFFSET 0.069355 -2.597500 0.012811 
								CHANNELS 3 Zrotation Xrotation Yrotation
								JOINT Model33
								{
									OFFSET 0.859775 0.070511 -0.466695 
									CHANNELS 3 Zrotation Xrotation Yrotation
									JOINT Model34
									{
										OFFSET -3.256725 0.000000 0.000000 
										CHANNELS 3 Zrotation Xrotation Yrotation
										JOINT Model35
										{
											OFFSET -2.721650 0.000000 0.000000 
											CHANNELS 3 Zrotation Xrotation Yrotation
											JOINT Model36
											{
												OFFSET -4.182925 0.000000 0.000000 
												CHANNELS 3 Zrotation Xrotation Yrotation
												JOINT Model37
												{
													OFFSET -2.957300 0.000000 0.000000 
													CHANNELS 3 Zrotation Xrotation Yrotation
													JOINT Model38
													{
														OFFSET -1.206877 0.933915 0.209129 
														CHANNELS 3 Zrotation Xrotation Yrotation
														JOINT Model39
														{
															OFFSET -0.938277 0.014571 0.004661 
															CHANNELS 3 Zrotation Xrotation Yrotation
															JOINT Model40
															{
																OFFSET -0.721717 -0.004809 -0.003700 
																CHANNELS 3 Zrotation Xrotation Yrotation
																End Site
																{
																	OFFSET 0.000000 0.000000 0.000000 
																}
															}
														}
													}
													JOINT Model41
													{
														OFFSET -2.430495 0.766147 -0.059692 
														CHANNELS 3 Zrotation Xrotation Yrotation
														JOINT Model42
														{
															OFFSET -1.152825 0.000000 0.000000 
															CHANNELS 3 Zrotation Xrotation Yrotation
															JOINT Model43
															{
																OFFSET -0.724227 0.000000 0.000000 
																CHANNELS 3 Zrotation Xrotation Yrotation
																End Site
																{
																	OFFSET 0.000000 0.000000 0.000000 
																}
															}
														}
													}
													JOINT Model44
													{
														OFFSET -2.386077 0.186266 -0.147235 
														CHANNELS 3 Zrotation Xrotation Yrotation
														JOINT Model45
														{
															OFFSET -1.334945 0.000000 0.000000 
															CHANNELS 3 Zrotation Xrotation Yrotation
															JOINT Model46
															{
																OFFSET -0.759048 -0.000004 0.000000 
																CHANNELS 3 Zrotation Xrotation Yrotation
																End Site
																{
																	OFFSET 0.000000 0.000000 0.000000 
																}
															}
														}
													}
													JOINT Model47
													{
														OFFSET -2.369400 -0.378215 -0.121280 
														CHANNELS 3 Zrotation Xrotation Yrotation
														JOINT Model48
														{
															OFFSET -1.240340 -0.000004 0.000000 
															CHANNELS 3 Zrotation Xrotation Yrotation
															JOINT Model49
															{
																OFFSET -0.629912 0.000000 0.000000 
																CHANNELS 3 Zrotation Xrotation Yrotation
																End Site
																{
																	OFFSET 0.000000 0.000000 0.000000 
																}
															}
														}
													}
													JOINT Model50
													{
														OFFSET -2.335618 -0.835295 0.059820 
														CHANNELS 3 Zrotation Xrotation Yrotation
														JOINT Model51
														{
															OFFSET -0.820647 -0.000005 0.000000 
															CHANNELS 3 Zrotation Xrotation Yrotation
															JOINT Model52
															{
																OFFSET -0.532302 0.000000 0.000000 
																CHANNELS 3 Zrotation Xrotation Yrotation
																End Site
																{
																	OFFSET 0.000000 0.000000 0.000000 
																}
															}
														}
													}
												}
											}
										}
									}
								}
							}
						}
					}
				}
			}
		}
	}
	JOINT Model53
	{
		OFFSET 1.095062 -0.536580 -0.278790 
		CHANNELS 3 Zrotation Xrotation Yrotation
		JOINT Model54
		{
			OFFSET 0.000000 0.000000 1.237497 
			CHANNELS 3 Zrotation Xrotation Yrotation
			JOINT Model55
			{
				OFFSET 4.641050 0.000000 0.000000 
				CHANNELS 3 Zrotation Xrotation Yrotation
				JOINT Model56
				{
					OFFSET 5.322100 0.000000 0.000003 
					CHANNELS 3 Zrotation Xrotation Yrotation
					JOINT Model57
					{
						OFFSET 7.565250 0.000000 0.000000 
						CHANNELS 3 Zrotation Xrotation Yrotation
						JOINT Model58
						{
							OFFSET 2.931475 0.000000 0.000000 
							CHANNELS 3 Zrotation Xrotation Yrotation
							JOINT Model59
							{
								OFFSET 2.670500 0.000000 0.000000 
								CHANNELS 3 Zrotation Xrotation Yrotation
								End Site
								{
									OFFSET 0.000000 0.000000 0.000000 
								}
							}
						}
					}
				}
			}
		}
	}
	JOINT Model60
	{
		OFFSET -1.095062 -0.536580 -0.278790 
		CHANNELS 3 Zrotation Xrotation Yrotation
		JOINT Model61
		{
			OFFSET 0.000000 0.000000 -1.237497 
			CHANNELS 3 Zrotation Xrotation Yrotation
			JOINT Model62
			{
				OFFSET -4.641050 0.000000 0.000000 
				CHANNELS 3 Zrotation Xrotation Yrotation
				JOINT Model63
				{
					OFFSET -5.322100 0.000000 -0.000003 
					CHANNELS 3 Zrotation Xrotation Yrotation
					JOINT Model64
					{
						OFFSET -7.565250 0.000000 0.000000 
						CHANNELS 3 Zrotation Xrotation Yrotation
						JOINT Model65
						{
							OFFSET -2.931475 0.000000 0.000000 
							CHANNELS 3 Zrotation Xrotation Yrotation
							JOINT Model66
							{
								OFFSET -2.670500 0.000000 0.000000 
								CHANNELS 3 Zrotation Xrotation Yrotation
								End Site
								{
									OFFSET 0.000000 0.000000 0.000000 
								}
							}
						}
					}
				}
			}
		}
	}
}
MOTION
Frames: 5
Frame Time: 0.033333
-3.327742 10.699681 19.259489 107.791000 17.406099 81.683502 -180.000000 0.000000 -90.000000 5.822290 -0.206376 -0.197625 11.644000 -0.432175 -0.373297 11.644000 -0.431747 -0.373385 21.759800 25.619801 -4.707410 -15.646500 25.832300 0.001594 120.092003 75.534302 58.493900 21.956499 7.501020 -2.432990 -167.276993 84.499901 48.810902 110.359001 -7.608230 29.306400 -0.000001 19.744499 0.000031 -2.379560 5.278500 -18.513500 0.000001 8.270600 0.000001 -10.398400 1.124200 -12.308900 -72.064796 39.038502 39.339699 33.363800 2.103620 14.835000 0.588947 0.308273 6.352870 -99.640900 81.413002 100.349998 -0.018141 0.000028 -0.117315 -0.124139 0.002411 -0.799296 -79.838203 79.577301 80.537399 -0.000226 -0.000221 0.000022 -0.000956 0.000123 -0.000027 -66.741600 80.405800 67.217102 -0.000437 0.000016 -0.000027 -0.000137 -0.000109 -0.000055 -6.421590 81.215797 8.017790 -0.000219 0.000017 0.000212 0.000902 -0.000185 -0.000219 -59.928200 75.537300 58.514702 14.860300 -3.862110 -2.838470 -167.276993 84.499901 48.810902 115.724998 -16.414101 34.491001 0.000003 6.235820 0.000031 -23.079901 31.243401 -0.111505 -0.000016 46.470699 0.000009 -4.160520 0.470381 -12.932400 -72.064796 39.038502 39.339699 33.363800 2.103610 14.835000 0.588946 0.308273 6.352870 -99.640900 81.413002 100.349998 -0.018141 0.000030 -0.117315 -0.124139 0.002411 -0.799296 -79.838203 79.577301 80.537399 -0.000261 -0.000219 0.000024 -0.000956 0.000123 -0.000027 -66.741600 80.405800 67.217102 -0.000437 0.000015 -0.000027 -0.000137 -0.000109 -0.000055 -6.421590 81.215797 8.017790 -0.000219 0.000020 0.000212 0.000902 -0.000191 -0.000219 0.000811 0.566610 89.910004 -85.210098 6.715670 -49.453400 -0.000003 -7.111830 -0.000000 63.780399 11.194700 -0.007730 0.000000 16.682899 0.000000 -10.934300 -5.568260 10.599100 -35.494701 0.000001 0.000000 -180.000000 -0.566579 -90.089996 -95.516403 9.468310 -29.560499 0.000000 0.097226 -0.000000 80.896896 -0.058936 -0.007629 0.000000 -0.209857 0.000000 -26.462200 6.492870 -6.556470 -35.494701 -0.000000 -0.000000 
-3.368994 10.711003 19.278990 107.780998 17.502399 81.786301 -180.000000 0.000000 -90.000000 5.879010 -0.208446 -0.194730 11.757400 -0.436172 -0.367091 11.757400 -0.435744 -0.367180 20.922100 25.180401 -4.882930 -15.707800 25.131201 0.982074 120.092003 75.534302 58.493900 21.681101 6.728030 -2.461210 -167.276993 84.499901 48.810902 111.348999 -8.736940 29.081900 0.000000 17.520599 0.000030 -2.586340 6.492800 -18.694500 0.000001 10.184400 0.000001 -10.684600 1.187860 -12.650300 -72.064796 39.038502 39.339699 33.363800 2.103620 14.835000 0.588947 0.308273 6.352870 -99.640900 81.413002 100.349998 -0.018141 0.000028 -0.117315 -0.124139 0.002411 -0.799296 -79.838203 79.577301 80.537399 -0.000226 -0.000221 0.000022 -0.000956 0.000123 -0.000027 -66.741600 80.405800 67.217102 -0.000437 0.000016 -0.000027 -0.000137 -0.000109 -0.000055 -6.421590 81.215797 8.017790 -0.000219 0.000017 0.000212 0.000902 -0.000185 -0.000219 -59.928200 75.537300 58.514702 14.723500 -4.074920 -2.859320 -167.276993 84.499901 48.810902 118.144997 -14.696700 34.032700 0.000002 7.904210 0.000031 -30.900600 30.184401 0.304877 -0.000015 44.777901 0.000008 -3.142320 0.255441 -8.964510 -72.064796 39.038502 39.339699 33.363800 2.103610 14.835000 0.588946 0.308273 6.352870 -99.640900 81.413002 100.349998 -0.018141 0.000030 -0.117315 -0.124139 0.002411 -0.799296 -79.838203 79.577301 80.537399 -0.000261 -0.000219 0.000024 -0.000956 0.000123 -0.000027 -66.741600 80.405800 67.217102 -0.000437 0.000015 -0.000027 -0.000137 -0.000109 -0.000055 -6.421590 81.215797 8.017790 -0.000219 0.000020 0.000212 0.000902 -0.000191 -0.000219 0.000811 0.566610 89.910004 -85.184196 6.649210 -49.284698 -0.000003 -7.125750 -0.000000 63.386101 11.226200 -0.007731 0.000000 16.730499 0.000000 -10.666500 -5.473510 10.521300 -35.494701 0.000001 0.000000 -180.000000 -0.566579 -90.089996 -95.957603 9.627170 -29.544600 0.000000 0.154304 -0.000000 81.704498 -0.261277 -0.007629 0.000000 -0.513645 0.000000 -28.971901 6.072560 -5.913260 -35.494701 -0.000000 -0.000000 
-3.408743 10.737153 19.295488 107.794998 17.448900 81.996902 -180.000000 0.000000 -90.000000 5.936740 -0.178080 -0.154201 11.873100 -0.371594 -0.289168 11.873100 -0.371167 -0.289258 19.858700 24.808399 -5.018090 -15.896200 24.655500 1.095840 120.092003 75.534302 58.493900 21.438400 6.212160 -2.468970 -167.276993 84.499901 48.810902 111.893997 -8.952460 28.795500 0.000001 16.856701 0.000030 -2.292990 6.935030 -18.680901 0.000001 10.886400 0.000001 -10.976700 1.261530 -13.071000 -72.064796 39.038502 39.339699 33.363800 2.103620 14.835000 0.588947 0.308273 6.352870 -99.640900 81.413002 100.349998 -0.018141 0.000028 -0.117315 -0.124139 0.002411 -0.799296 -79.838203 79.577301 80.537399 -0.000226 -0.000221 0.000022 -0.000956 0.000123 -0.000027 -66.741600 80.405800 67.217102 -0.000437 0.000016 -0.000027 -0.000137 -0.000109 -0.000055 -6.421590 81.215797 8.017790 -0.000219 0.000017 0.000212 0.000902 -0.000185 -0.000219 -59.928200 75.537300 58.514702 14.699500 -4.276100 -2.892590 -167.276993 84.499901 48.810902 119.470001 -12.949000 33.060001 0.000001 9.829640 0.000031 -38.533298 26.667200 0.432308 -0.000014 39.418201 0.000008 -1.222030 0.061087 -5.621170 -72.064796 39.038502 39.339699 33.363800 2.103610 14.835000 0.588946 0.308273 6.352870 -99.640900 81.413002 100.349998 -0.018141 0.000030 -0.117315 -0.124139 0.002411 -0.799296 -79.838203 79.577301 80.537399 -0.000261 -0.000219 0.000024 -0.000956 0.000123 -0.000027 -66.741600 80.405800 67.217102 -0.000437 0.000015 -0.000027 -0.000137 -0.000109 -0.000055 -6.421590 81.215797 8.017790 -0.000219 0.000020 0.000212 0.000902 -0.000191 -0.000219 0.000811 0.566610 89.910004 -85.114700 6.630580 -49.296101 -0.000003 -7.107950 -0.000000 63.084900 11.244700 -0.007732 0.000000 16.758600 0.000000 -10.647200 -5.273260 10.221800 -35.494701 0.000001 0.000000 -180.000000 -0.566579 -90.089996 -96.631798 9.764800 -29.172001 0.000000 0.263676 -0.000000 82.923103 -0.408716 -0.007629 0.000000 -0.735170 0.000000 -32.219200 5.951810 -5.607460 -35.494701 -0.000000 -0.000000 
-3.442991 10.769128 19.294989 107.487999 17.437099 82.192596 -180.000000 0.000000 -90.000000 5.883600 -0.117110 -0.146113 11.766900 -0.249009 -0.279431 11.766900 -0.248581 -0.279520 19.179300 24.496799 -4.709950 -16.634100 24.468300 0.319549 120.092003 75.534302 58.493900 21.623800 6.301160 -2.498470 -167.276993 84.499901 48.810902 112.183998 -8.971180 28.823799 0.000001 16.750500 0.000030 -2.145770 6.959660 -18.658400 0.000001 10.927300 0.000001 -11.321400 1.279640 -12.861100 -72.064796 39.038502 39.339699 33.363800 2.103620 14.835000 0.588947 0.308273 6.352870 -99.640900 81.413002 100.349998 -0.018141 0.000028 -0.117315 -0.124139 0.002411 -0.799296 -79.838203 79.577301 80.537399 -0.000226 -0.000221 0.000022 -0.000956 0.000123 -0.000027 -66.741600 80.405800 67.217102 -0.000437 0.000016 -0.000027 -0.000137 -0.000109 -0.000055 -6.421590 81.215797 8.017790 -0.000219 0.000017 0.000212 0.000902 -0.000185 -0.000219 -59.928200 75.537300 58.514702 14.816700 -4.362590 -2.922370 -167.276993 84.499901 48.810902 119.790001 -11.962300 32.061401 0.000001 10.896900 0.000032 -43.072300 22.905500 0.450147 -0.000013 33.738701 0.000007 0.411672 -0.013233 -4.111160 -72.064796 39.038502 39.339699 33.363800 2.103610 14.835000 0.588946 0.308273 6.352870 -99.640900 81.413002 100.349998 -0.018141 0.000030 -0.117315 -0.124139 0.002411 -0.799296 -79.838203 79.577301 80.537399 -0.000261 -0.000219 0.000024 -0.000956 0.000123 -0.000027 -66.741600 80.405800 67.217102 -0.000437 0.000015 -0.000027 -0.000137 -0.000109 -0.000055 -6.421590 81.215797 8.017790 -0.000219 0.000020 0.000212 0.000902 -0.000191 -0.000219 0.000811 0.566610 89.910004 -85.210899 6.585290 -49.344101 -0.000003 -7.265090 -0.000000 62.837700 11.191400 -0.007730 0.000000 16.678900 0.000000 -10.641200 -5.336520 10.319500 -35.494701 0.000001 0.000000 -180.000000 -0.566579 -90.089996 -97.648003 9.968990 -28.772699 0.000000 0.348041 -0.000000 84.149498 -0.534428 -0.007629 0.000000 -0.924051 0.000000 -35.361801 6.227520 -5.710890 -35.494701 -0.000000 -0.000000 
-3.460993 10.792203 19.269739 106.976997 17.579901 82.208199 -180.000000 0.000000 -90.000000 5.769250 -0.071043 -0.191122 11.538200 -0.161368 -0.374140 11.538200 -0.160939 -0.374228 18.382200 24.296600 -4.718880 -17.731600 24.197201 0.417887 120.092003 75.534302 58.493900 22.095200 6.040100 -2.627330 -167.276993 84.499901 48.810902 111.301003 -8.324240 29.253099 -0.000000 18.282801 0.000031 -2.122360 6.068050 -18.540600 0.000001 9.519500 0.000001 -11.510500 1.226670 -12.123600 -72.064796 39.038502 39.339699 33.363800 2.103620 14.835000 0.588947 0.308273 6.352870 -99.640900 81.413002 100.349998 -0.018141 0.000028 -0.117315 -0.124139 0.002411 -0.799296 -79.838203 79.577301 80.537399 -0.000226 -0.000221 0.000022 -0.000956 0.000123 -0.000027 -66.741600 80.405800 67.217102 -0.000437 0.000016 -0.000027 -0.000137 -0.000109 -0.000055 -6.421590 81.215797 8.017790 -0.000219 0.000017 0.000212 0.000902 -0.000185 -0.000219 -59.928200 75.537300 58.514702 15.558900 -4.140300 -2.975670 -167.276993 84.499901 48.810902 119.644997 -11.399600 31.701099 0.000000 11.700400 0.000032 -46.033901 17.475700 0.458498 -0.000012 25.575300 0.000007 2.410280 -0.124116 -5.497300 -72.064796 39.038502 39.339699 33.363800 2.103610 14.835000 0.588946 0.308273 6.352870 -99.640900 81.413002 100.349998 -0.018141 0.000030 -0.117315 -0.124139 0.002411 -0.799296 -79.838203 79.577301 80.537399 -0.000261 -0.000219 0.000024 -0.000956 0.000123 -0.000027 -66.741600 80.405800 67.217102 -0.000437 0.000015 -0.000027 -0.000137 -0.000109 -0.000055 -6.421590 81.215797 8.017790 -0.000219 0.000020 0.000212 0.000902 -0.000191 -0.000219 0.000811 0.566610 89.910004 -85.475197 6.524150 -49.190498 -0.000003 -7.486960 -0.000000 62.793499 11.147500 -0.007729 0.000000 16.613199 0.000000 -10.574400 -5.465100 10.531600 -35.494701 0.000001 0.000000 -180.000000 -0.566579 -90.089996 -98.628098 10.268100 -28.638800 0.000000 0.454076 -0.000000 84.928001 -0.620652 -0.007629 0.000000 -1.053550 0.000000 -37.411400 6.742690 -6.100820 -35.494701 -0.000000 -0.000000 
